<svg id="Layer_1" data-name="Layer 1" xmlns="http://www.w3.org/2000/svg" viewBox="0 0 1058 302"><defs><style>.cls-1{fill:#2483c5;}.cls-2{fill:#fff;}</style></defs><rect class="cls-1" x="0.05" y="-0.71" width="1058.95" height="304.89"/><rect class="cls-2" x="61.97" y="247.64" width="73.59" height="5.1"/><polygon class="cls-2" points="61.97 239.25 61.97 231.33 134.97 231.33 135.28 239.25 61.97 239.25"/><polygon class="cls-2" points="61.97 222.82 61.97 211.94 134.47 211.94 134.69 222.82 61.97 222.82"/><polygon class="cls-2" points="61.97 203.39 61.97 187.62 133.72 187.62 134.08 203.39 61.97 203.39"/><polygon class="cls-2" points="61.97 179.35 61.97 154.95 270.95 154.95 272.48 179.35 146.02 179.35 131.6 154.96 133.36 179.35 61.97 179.35"/><polygon class="cls-2" points="61.97 146.52 61.97 116.34 186.77 116.34 205.26 146.53 203.52 116.34 272.48 116.34 272.48 146.52 61.97 146.52"/><polygon class="cls-2" points="61.97 107.86 61.97 48.97 146.38 49.21 181.33 107.86 61.97 107.86"/><rect class="cls-2" x="203.52" y="48.97" width="68.96" height="58.9"/><polygon class="cls-2" points="272.48 187.62 272.48 203.39 162.15 203.39 151.69 187.62 272.48 187.62"/><polygon class="cls-2" points="272.48 211.94 272.48 222.81 174.76 222.81 167.6 211.94 272.48 211.94"/><polygon class="cls-2" points="272.48 231.33 272.48 239.25 185.58 239.25 180.39 231.33 272.48 231.33"/><polygon class="cls-2" points="272.48 247.64 272.48 252.74 194.55 252.74 191.16 247.64 272.48 247.64"/><rect class="cls-2" x="292.15" y="247.64" width="72.01" height="5.1"/><rect class="cls-2" x="292.15" y="231.33" width="72.01" height="7.91"/><rect class="cls-2" x="292.15" y="211.94" width="72.01" height="10.88"/><rect class="cls-2" x="292.15" y="187.62" width="72.01" height="15.75"/><rect class="cls-2" x="292.15" y="154.95" width="72.01" height="24.4"/><rect class="cls-2" x="292.15" y="116.34" width="72.01" height="30.19"/><rect class="cls-2" x="292.15" y="48.97" width="72.01" height="58.9"/><path class="cls-2" d="M488,45.49h38.22v62.37H387C404.25,71.24,443,45.49,488,45.49"/><path class="cls-2" d="M464.39,116.34A40.21,40.21,0,0,0,450,146.52H377.49a103.64,103.64,0,0,1,6-30.18Z"/><path class="cls-2" d="M450.67,155A40.81,40.81,0,0,0,465,179.35H381.77a98.09,98.09,0,0,1-4.1-24.4Z"/><path class="cls-2" d="M526.18,187.62v15.77H392.54a98.43,98.43,0,0,1-7.9-15.77Z"/><path class="cls-2" d="M526.18,211.94v10.88H407.87a103.56,103.56,0,0,1-9.52-10.88Z"/><path class="cls-2" d="M526.18,231.33v7.92H428.7a129.76,129.76,0,0,1-11.36-7.92Z"/><path class="cls-2" d="M526.18,247.64V252H461s-2.17.75-15.12-4.39Z"/><polygon class="cls-2" points="563.9 49.67 576.85 49.67 600.32 90.52 600.32 49.67 611.84 49.67 611.84 108.25 599.48 108.25 575.41 66.69 575.41 108.25 563.9 108.25 563.9 49.67"/><path class="cls-2" d="M639,81.9a18.69,18.69,0,0,0,4.56-1A3.41,3.41,0,0,0,646,77.69,3.82,3.82,0,0,0,644.14,74a12,12,0,0,0-5.56-1c-2.73,0-4.67.67-5.81,2a8.14,8.14,0,0,0-1.62,4h-11a16.5,16.5,0,0,1,3.23-9.34Q627.9,63.89,639,63.9a28.14,28.14,0,0,1,12.81,2.82q5.6,2.82,5.59,10.65V97.24c0,1.39,0,3.05.09,5a6.14,6.14,0,0,0,.69,3,4.06,4.06,0,0,0,1.68,1.3v1.67H647.39a12.71,12.71,0,0,1-.72-2.47c-.13-.76-.24-1.64-.32-2.62a23.43,23.43,0,0,1-5.48,4.33,16.73,16.73,0,0,1-8.41,2.11,14.57,14.57,0,0,1-9.85-3.35q-3.9-3.37-3.9-9.52,0-8,6.27-11.57,3.43-2,10.1-2.78Zm7,5.29a12.57,12.57,0,0,1-2.21,1.09,17.58,17.58,0,0,1-3.07.77l-2.6.48a17.48,17.48,0,0,0-5.26,1.55,5.17,5.17,0,0,0-2.69,4.81,5,5,0,0,0,1.65,4.19,6.21,6.21,0,0,0,4,1.29,12,12,0,0,0,6.9-2.14c2.11-1.44,3.2-4,3.28-7.83Z"/><path class="cls-2" d="M662.05,73.39V65.33h6.1V53.24h11.32V65.33h7.09v8.06h-7.09V96.28c0,1.78.22,2.89.68,3.32s1.85.66,4.17.66c.34,0,.71,0,1.1,0s.77,0,1.14-.06v8.47l-5.41.19q-8.1.28-11.08-2.77-1.92-1.95-1.92-6V73.39Z"/><path class="cls-2" d="M706.25,59.76h-11.6V49.31h11.6Zm-11.6,5.17h11.6v43.32h-11.6Z"/><path class="cls-2" d="M751.55,103q-5.53,6.75-16.8,6.76T717.93,103a25,25,0,0,1-5.53-16.31,25.08,25.08,0,0,1,5.53-16.24q5.54-6.87,16.82-6.87t16.8,6.87a25.14,25.14,0,0,1,5.53,16.24A25,25,0,0,1,751.55,103m-9.14-6.27q2.67-3.54,2.68-10t-2.68-10a10.23,10.23,0,0,0-15.44,0c-1.79,2.34-2.7,5.68-2.7,10s.91,7.68,2.7,10a10.21,10.21,0,0,0,15.44,0"/><path class="cls-2" d="M799.7,67.41Q804,70.94,804,79.07v29.18H792.27V81.9a12.06,12.06,0,0,0-.9-5.25c-1.12-2.22-3.24-3.33-6.38-3.33q-5.78,0-7.92,4.88A16.86,16.86,0,0,0,776,84.8v23.45H764.52V65H775.6v6.32a19,19,0,0,1,4.15-4.81,14.47,14.47,0,0,1,8.91-2.62,16.89,16.89,0,0,1,11,3.51"/><path class="cls-2" d="M831.12,81.9a18.58,18.58,0,0,0,4.56-1,3.41,3.41,0,0,0,2.47-3.22A3.8,3.8,0,0,0,836.26,74a12,12,0,0,0-5.55-1c-2.74,0-4.68.67-5.81,2a8.14,8.14,0,0,0-1.63,4h-11a16.49,16.49,0,0,1,3.22-9.34q4.57-5.73,15.63-5.72a28,28,0,0,1,12.81,2.82c3.73,1.88,5.61,5.43,5.61,10.65V97.24c0,1.39,0,3.05.07,5a6.4,6.4,0,0,0,.68,3,4.17,4.17,0,0,0,1.69,1.3v1.67H839.52a12.12,12.12,0,0,1-.73-2.47c-.13-.76-.23-1.64-.32-2.62a23.64,23.64,0,0,1-5.48,4.33,16.63,16.63,0,0,1-8.39,2.11,14.59,14.59,0,0,1-9.87-3.35q-3.9-3.37-3.89-9.52,0-8,6.26-11.57,3.43-2,10.1-2.78Zm7,5.29a12.66,12.66,0,0,1-2.22,1.09,17.68,17.68,0,0,1-3.06.77l-2.61.48A17.4,17.4,0,0,0,825,91.08a5.17,5.17,0,0,0-2.69,4.81,5,5,0,0,0,1.64,4.19,6.26,6.26,0,0,0,4,1.29,12,12,0,0,0,6.9-2.14c2.11-1.44,3.2-4,3.28-7.83Z"/><rect class="cls-2" x="858.91" y="49.67" width="11.44" height="58.58"/><rect class="cls-2" x="563.1" y="118.39" width="12.27" height="58.57"/><path class="cls-2" d="M620.44,136.13q4.29,3.51,4.29,11.66V177H613V150.62a12,12,0,0,0-.92-5.25c-1.12-2.22-3.24-3.34-6.37-3.34-3.86,0-6.49,1.64-7.93,4.9a16.77,16.77,0,0,0-1.11,6.59V177H585.26V133.73h11.07V140a19.28,19.28,0,0,1,4.16-4.8,14.36,14.36,0,0,1,8.89-2.62c4.51,0,8.19,1.16,11.06,3.51"/><path class="cls-2" d="M652.62,117.85,655,118v9.22c-.64-.08-1.71-.14-3.22-.18a3.71,3.71,0,0,0-3.13,1,3.59,3.59,0,0,0-.86,2.32V134h7.5v8h-7.5V177H636.47V142h-6.42v-8h6.25v-2.77q0-7,2.37-9.59c1.65-2.59,5.66-3.88,12-3.88.72,0,1.39,0,2,0"/><path class="cls-2" d="M697.53,171.66q-5.53,6.78-16.8,6.78t-16.81-6.78a26.65,26.65,0,0,1,0-32.53q5.54-6.87,16.81-6.87t16.8,6.87a26.68,26.68,0,0,1,0,32.53m-9.14-6.25q2.68-3.53,2.69-10t-2.69-10a10.23,10.23,0,0,0-15.43,0q-2.7,3.53-2.7,10t2.7,10a10.2,10.2,0,0,0,15.43,0"/><path class="cls-2" d="M734.72,132.63l1,.07v11.6c-.72-.08-1.36-.14-1.92-.16s-1,0-1.36,0c-4.61,0-7.69,1.49-9.27,4.45-.89,1.68-1.32,4.24-1.32,7.71V177H710.31V133.64h10.92v7.56a24.08,24.08,0,0,1,4.6-5.92,12.64,12.64,0,0,1,8.36-2.66h.53"/><path class="cls-2" d="M796.14,133.81a12.75,12.75,0,0,1,5.09,3.89,12.37,12.37,0,0,1,2.48,5.57,36.8,36.8,0,0,1,.4,6.39L804,177H792.32V149.39a9,9,0,0,0-.8-4.06q-1.53-3-5.62-3c-3.15,0-5.33,1.29-6.54,3.89a12.05,12.05,0,0,0-.92,5V177H766.93V151.18a14.26,14.26,0,0,0-.81-5.61c-1-2.1-2.84-3.14-5.65-3.14-3.26,0-5.46,1-6.57,3.14a11.79,11.79,0,0,0-.92,5.32V177h-11.6V133.73h11.1V140a18.36,18.36,0,0,1,4-4.8,16,16,0,0,1,16.73-.36,12.77,12.77,0,0,1,3.77,5.2,14.49,14.49,0,0,1,5.58-5.6,17.23,17.23,0,0,1,7.85-1.78,15.5,15.5,0,0,1,5.71,1.11"/><path class="cls-2" d="M831.12,150.62a18,18,0,0,0,4.56-1,3.41,3.41,0,0,0,2.47-3.22,3.79,3.79,0,0,0-1.89-3.67,12.12,12.12,0,0,0-5.55-1c-2.74,0-4.68.65-5.81,2a8.06,8.06,0,0,0-1.63,4h-11a16.49,16.49,0,0,1,3.22-9.34q4.57-5.73,15.63-5.72a28,28,0,0,1,12.81,2.81c3.73,1.88,5.61,5.44,5.61,10.65V166c0,1.38,0,3,.07,5a6.3,6.3,0,0,0,.68,3A4.18,4.18,0,0,0,852,175.3V177H839.52a12,12,0,0,1-.73-2.46c-.13-.77-.23-1.64-.32-2.62a23.64,23.64,0,0,1-5.48,4.33,16.73,16.73,0,0,1-8.39,2.11,14.59,14.59,0,0,1-9.87-3.35c-2.6-2.25-3.89-5.41-3.89-9.53q0-8,6.26-11.56c2.29-1.3,5.65-2.22,10.1-2.79Zm7,5.28a12.05,12.05,0,0,1-2.22,1.1,20.76,20.76,0,0,1-3.06.78l-2.61.47A17.11,17.11,0,0,0,825,159.8a5.16,5.16,0,0,0-2.69,4.81,5,5,0,0,0,1.64,4.19,6.32,6.32,0,0,0,4,1.29,11.94,11.94,0,0,0,6.9-2.15c2.11-1.43,3.2-4,3.28-7.82Z"/><path class="cls-2" d="M854.18,142.11V134h6.1V122h11.31V134h7.09v8.07h-7.09V165c0,1.78.22,2.88.68,3.32s1.84.66,4.16.66l1.11,0c.39,0,.77,0,1.14-.06v8.47l-5.41.19c-5.41.19-9.09-.74-11.07-2.78-1.29-1.29-1.92-3.3-1.92-6V142.11Z"/><path class="cls-2" d="M898.37,128.48H886.78V118h11.59Zm-11.59,5.16h11.59V177H886.78Z"/><path class="cls-2" d="M933.36,149.19a9.7,9.7,0,0,0-1.66-4.37c-1.28-1.76-3.27-2.63-6-2.63-3.86,0-6.51,1.9-7.92,5.68a23.19,23.19,0,0,0-1.13,8,21.41,21.41,0,0,0,1.13,7.67,7.64,7.64,0,0,0,7.72,5.4c2.67,0,4.58-.72,5.7-2.14a10.52,10.52,0,0,0,2-5.57H945a18.81,18.81,0,0,1-3.78,9.78q-5.37,7.43-15.93,7.43t-15.53-6.2q-5-6.21-5-16.08,0-11.15,5.5-17.34t15.18-6.2q8.24,0,13.47,3.65c3.49,2.43,5.56,6.75,6.2,12.92Z"/><path class="cls-2" d="M960.94,163.14a7.47,7.47,0,0,0,1.58,4.29c1.41,1.51,4.05,2.26,7.89,2.26a12.21,12.21,0,0,0,5.38-1,3.17,3.17,0,0,0,2-3,3.22,3.22,0,0,0-1.6-2.91q-1.6-1-12-3.42c-5-1.23-8.47-2.74-10.51-4.56s-3-4.41-3-7.8a13.45,13.45,0,0,1,4.76-10.31c3.17-2.88,7.65-4.32,13.41-4.32q8.19,0,13.36,3.24t5.93,11.18H976.7a6.65,6.65,0,0,0-1.24-3.45c-1.26-1.54-3.41-2.3-6.45-2.3-2.48,0-4.26.38-5.32,1.15a3.31,3.31,0,0,0-1.59,2.71,2.94,2.94,0,0,0,1.69,2.81q1.69.92,11.94,3.14c4.55,1.07,8,2.66,10.24,4.81a10.92,10.92,0,0,1,3.37,8.15,13.12,13.12,0,0,1-4.85,10.52q-4.83,4.06-15,4.07-10.32,0-15.24-4.31a13.94,13.94,0,0,1-4.92-11Z"/><path class="cls-2" d="M569.75,195.72q7.13-7.22,18.17-7.23,14.76,0,21.58,9.7a20.89,20.89,0,0,1,4.06,10.93H601.21a16.75,16.75,0,0,0-3-6.36q-3.31-3.81-9.79-3.82A12.09,12.09,0,0,0,578,204.33q-3.81,5.38-3.81,15.24t4,14.77a12.68,12.68,0,0,0,10.22,4.91q6.36,0,9.7-4.22a18.68,18.68,0,0,0,3-6.79h12.27a26.22,26.22,0,0,1-8.1,15.57q-6.54,6-16.74,6-12.62,0-19.84-8.1t-7.22-22.35q0-15.33,8.22-23.64"/><path class="cls-2" d="M650.17,205.74a17.8,17.8,0,0,1,7.56,6.41,21.15,21.15,0,0,1,3.48,8.95,56.7,56.7,0,0,1,.38,8.61H629.74q.27,6.51,4.57,9.14a11.69,11.69,0,0,0,6.31,1.62,8.84,8.84,0,0,0,8.7-5H661q-.47,3.87-4.23,7.84-5.89,6.32-16.45,6.32a24.05,24.05,0,0,1-15.41-5.33Q618.24,239,618.23,227q0-11.25,6-17.26t15.65-6a25.32,25.32,0,0,1,10.28,2m-17.1,9.78a11.77,11.77,0,0,0-3,6.71h19.69a9.37,9.37,0,0,0-3-6.83,10.05,10.05,0,0,0-6.79-2.35,9.15,9.15,0,0,0-6.82,2.47"/><path class="cls-2" d="M701.8,207.34c2.87,2.36,4.3,6.24,4.3,11.68v29.17H694.39V221.84a12,12,0,0,0-.92-5.25c-1.11-2.23-3.24-3.34-6.37-3.34q-5.77,0-7.93,4.89a16.82,16.82,0,0,0-1.11,6.6v23.45H666.62V204.94H677.7v6.33a19,19,0,0,1,4.15-4.81,14.43,14.43,0,0,1,8.91-2.62q6.75,0,11,3.5"/><path class="cls-2" d="M711.41,213.33v-8.07h6.1V193.18h11.31v12.08h7.1v8.07h-7.1v22.89c0,1.77.23,2.89.68,3.32s1.84.66,4.17.66l1.11,0c.39,0,.77,0,1.14-.06v8.47l-5.42.19q-8.1.27-11.07-2.78c-1.28-1.29-1.92-3.3-1.92-6V213.33Z"/><path class="cls-2" d="M766.73,203.85c.14,0,.48,0,1,.05v11.62c-.73-.09-1.37-.14-1.93-.16s-1-.05-1.37-.05c-4.59,0-7.68,1.5-9.26,4.46-.88,1.67-1.33,4.23-1.33,7.71v20.71h-11.5V204.86h10.9v7.55a23.53,23.53,0,0,1,4.62-5.91,12.6,12.6,0,0,1,8.34-2.66h.54"/><path class="cls-2" d="M802.08,205.74a17.66,17.66,0,0,1,7.55,6.41,21,21,0,0,1,3.49,8.95,55.41,55.41,0,0,1,.38,8.61H781.66q.26,6.51,4.56,9.14a11.71,11.71,0,0,0,6.31,1.62,9.68,9.68,0,0,0,6.34-2,9.51,9.51,0,0,0,2.36-3h11.66q-.45,3.87-4.23,7.84-5.86,6.32-16.45,6.32a24.07,24.07,0,0,1-15.4-5.33Q770.14,239,770.13,227q0-11.25,6-17.26t15.63-6a25.33,25.33,0,0,1,10.29,2M785,215.52a11.78,11.78,0,0,0-3.05,6.71h19.7a9.34,9.34,0,0,0-3-6.83,10,10,0,0,0-6.78-2.35,9.14,9.14,0,0,0-6.82,2.47"/></svg>