<svg width="120" height="45" viewBox="0 0 120 45" fill="none" xmlns="http://www.w3.org/2000/svg">
<g clip-path="url(#clip0_1383_103)">
<path fill-rule="evenodd" clip-rule="evenodd" d="M37.2316 42.8571L36.9371 43.0639C35.9605 43.7548 34.8242 44.186 33.6351 44.317C33.3594 44.3483 33.09 44.3671 32.8143 44.3734C31.9873 44.3734 31.1602 44.3734 30.3081 44.3734C28.6786 44.3567 27.1031 43.7871 25.8396 42.7581C24.5761 41.7291 23.6994 40.3015 23.3532 38.7092C23.239 38.1464 23.1865 37.5729 23.1965 36.9987C23.1965 34.2105 23.1965 31.4285 23.1965 28.6403V16.0902C23.2491 16.0544 23.3085 16.0298 23.3711 16.0179C23.4336 16.006 23.4979 16.0072 23.5599 16.0212H28.2216H28.5599C28.5599 16.1027 28.5599 16.1716 28.5599 16.2405V37.2869C28.5743 37.747 28.7652 38.1838 29.093 38.507C29.4208 38.8301 29.8604 39.0147 30.3206 39.0225C31.1289 39.0225 31.9434 39.0225 32.7579 39.0225C33.2261 39.0242 33.6758 38.8407 34.0092 38.512C34.3426 38.1834 34.5324 37.7362 34.5374 37.2681V36.9047C34.5374 30.1044 34.5374 23.304 34.5374 16.5037C34.5216 16.3558 34.5216 16.2067 34.5374 16.0588L34.5812 16.0212H34.6188H39.7066H39.8632C39.8848 16.0861 39.8974 16.1535 39.9008 16.2217C39.9008 16.3408 39.9008 16.4598 39.9008 16.5789C39.9008 23.3458 39.9008 30.1106 39.9008 36.8734C39.8996 37.1018 39.9142 37.33 39.9446 37.5563C40.0112 37.9558 40.2145 38.3197 40.5196 38.586C40.8247 38.8523 41.2128 39.0043 41.6176 39.0162C42.4634 39.0162 43.3156 39.0162 44.1614 39.0162C44.6029 39.0014 45.023 38.8223 45.3394 38.5141C45.6558 38.2058 45.8457 37.7905 45.872 37.3496C45.872 37.1867 45.872 37.0175 45.872 36.8483V16.5538C45.872 16.3847 45.872 16.2217 45.872 16.0714C45.992 15.9981 46.1354 15.9735 46.273 16.0025H50.9722H51.2354C51.2354 16.0776 51.2354 16.1466 51.2354 16.2155C51.2354 16.2844 51.2354 16.3784 51.2354 16.4661V36.8859C51.2462 37.6402 51.1556 38.3926 50.966 39.1228C50.6291 40.3505 49.9717 41.4665 49.061 42.3562C48.1504 43.2458 47.0195 43.8772 45.7842 44.1854C45.24 44.3276 44.6801 44.4013 44.1176 44.4047C43.2592 44.4047 42.4008 44.4047 41.5424 44.4047C40.1222 44.3971 38.7375 43.9603 37.57 43.1516L37.2191 42.9072H37.1502" fill="white"/>
<path fill-rule="evenodd" clip-rule="evenodd" d="M100.676 44.5551C100.676 44.4736 100.676 44.4298 100.676 44.3797V39.3233C100.684 39.2829 100.695 39.2431 100.708 39.2042C100.775 39.2008 100.841 39.2008 100.908 39.2042H101.735C104.868 39.2042 108.001 39.2042 111.165 39.2042C111.623 39.2136 112.069 39.0554 112.418 38.7594C112.892 38.3776 113.27 37.891 113.522 37.3381C113.775 36.7852 113.896 36.181 113.876 35.5734C113.855 34.9657 113.693 34.3711 113.403 33.8367C113.113 33.3022 112.703 32.8424 112.205 32.4937C111.946 32.2974 111.628 32.1956 111.303 32.2055C110.144 32.2055 108.985 32.2055 107.819 32.2055C105.826 32.1984 103.906 31.4528 102.431 30.1127C101 28.8657 100.062 27.1477 99.7867 25.2694C99.47 23.2909 99.8885 21.2649 100.963 19.5739C102.038 17.8828 103.694 16.6436 105.62 16.0902C106.403 15.8672 107.212 15.7555 108.026 15.7581H116.666H116.923C116.928 15.8186 116.928 15.8793 116.923 15.9398V20.9523C116.928 21.0044 116.928 21.0569 116.923 21.109C116.859 21.1306 116.791 21.1432 116.723 21.1466H108.164C107.831 21.1392 107.499 21.1729 107.174 21.2468C106.524 21.4123 105.953 21.804 105.565 22.3516C105.177 22.8992 104.997 23.567 105.056 24.2355C105.1 24.8675 105.358 25.4656 105.787 25.9314C106.217 26.3972 106.792 26.7029 107.418 26.7982C107.626 26.8314 107.835 26.8482 108.045 26.8483H112.312C112.623 26.8479 112.931 26.9053 113.22 27.0175C114.981 27.6778 116.501 28.8567 117.578 30.3985C118.655 31.9404 119.239 33.7726 119.254 35.6534C119.268 37.5341 118.712 39.375 117.658 40.9329C116.604 42.4909 115.103 43.6927 113.352 44.3797C112.997 44.5201 112.619 44.5945 112.237 44.599H100.996H100.676" fill="white"/>
<path fill-rule="evenodd" clip-rule="evenodd" d="M68.1316 30.5514C68.1818 29.8527 68.1818 29.1512 68.1316 28.4524C68.0222 27.74 67.7016 27.0767 67.2112 26.5483C66.7209 26.02 66.0833 25.6509 65.381 25.4888C65.041 25.4192 64.694 25.3898 64.3471 25.4011H56.7782C56.7365 25.4046 56.6946 25.4046 56.6529 25.4011C56.6028 25.1191 56.5965 22.0552 56.6529 21.6855C56.7163 21.668 56.7814 21.6575 56.8471 21.6542H64.5226C66.3265 21.6499 68.0701 22.3036 69.4265 23.4928C70.783 24.6821 71.6592 26.3251 71.891 28.1141C71.9371 28.4819 71.958 28.8524 71.9536 29.2231V39.8747C71.9536 40.0188 71.9536 40.163 71.9536 40.3071C71.9816 40.5338 72.0822 40.7453 72.2403 40.9102C72.3983 41.0751 72.6055 41.1844 72.8308 41.2219C72.9852 41.2314 73.1401 41.2314 73.2945 41.2219H75.9198L75.9637 41.2782C75.9637 42.4374 75.9637 43.5965 75.9637 44.7557C75.9637 44.8058 75.9637 44.8497 75.9637 44.9186C75.8949 44.9247 75.8257 44.9247 75.7569 44.9186C74.5038 44.9186 73.2005 44.9186 71.9223 44.9186C71.0605 44.8958 70.231 44.5856 69.5657 44.0372C68.9005 43.4889 68.4376 42.7339 68.2506 41.8923L68.1692 41.5539C67.8622 41.8484 67.5865 42.1304 67.292 42.381C67.0036 42.6319 66.6979 42.8622 66.3772 43.0702C65.7171 43.5042 64.9973 43.8398 64.2406 44.0665C63.8759 44.1801 63.503 44.266 63.1253 44.3234C62.7369 44.3785 62.3458 44.412 61.9536 44.4236C61.5579 44.431 61.1622 44.4101 60.7694 44.361C60.3907 44.3157 60.0158 44.2424 59.6479 44.1417C59.2682 44.0387 58.8956 43.9111 58.5326 43.7595C58.1694 43.605 57.8176 43.4249 57.4799 43.2206C57.1533 43.0358 56.8412 42.8263 56.5464 42.594C56.2384 42.3465 55.9474 42.0786 55.6754 41.792C54.2719 40.2853 53.473 38.3142 53.4314 36.2555C53.3898 34.1969 54.1084 32.1951 55.4499 30.6329C55.8907 30.1116 56.396 29.6484 56.9536 29.2544C57.5073 28.8575 58.1095 28.5333 58.7456 28.2895C59.3778 28.0393 60.0387 27.8689 60.713 27.782C61.4018 27.6974 62.0982 27.6974 62.787 27.782C63.4649 27.8573 64.1303 28.0195 64.7669 28.2645C65.4092 28.5155 66.0175 28.846 66.5777 29.2482C67.1337 29.6397 67.6538 30.0801 68.1316 30.564V30.5514ZM61.8033 31.5414C60.8931 31.5439 60.0042 31.8164 59.249 32.3243C58.4938 32.8323 57.9064 33.5529 57.5609 34.395C57.2155 35.237 57.1277 36.1626 57.3086 37.0545C57.4895 37.9465 57.931 38.7647 58.5772 39.4056C59.2234 40.0466 60.0452 40.4813 60.9386 40.6549C61.832 40.8285 62.7569 40.7332 63.5961 40.3809C64.4352 40.0286 65.151 39.4352 65.6528 38.6759C66.1545 37.9166 66.4197 37.0255 66.4148 36.1153C66.4131 35.512 66.2925 34.9149 66.0597 34.3582C65.8269 33.8016 65.4865 33.2963 65.0582 32.8714C64.6298 32.4465 64.1218 32.1104 63.5632 31.8821C63.0047 31.6539 62.4066 31.5381 61.8033 31.5414Z" fill="white"/>
<path fill-rule="evenodd" clip-rule="evenodd" d="M90.9273 30.5325C90.8959 29.8433 90.9711 29.1478 90.8771 28.4586C90.7672 27.7397 90.4418 27.071 89.9441 26.5408C89.4463 26.0106 88.7995 25.6438 88.0889 25.4887C87.786 25.4269 87.477 25.3995 87.1679 25.4072H79.7807C79.6476 25.4299 79.5108 25.4147 79.3859 25.3634C79.3794 25.3197 79.3794 25.2754 79.3859 25.2318C79.3859 24.0476 79.3859 22.8696 79.3859 21.6666L79.599 21.629H87.3057C88.976 21.6354 90.5951 22.2056 91.9007 23.2473C93.2063 24.2891 94.1217 25.7412 94.4987 27.3684C94.6303 27.9395 94.6934 28.5242 94.6867 29.1102V39.7995C94.6771 39.9539 94.6771 40.1087 94.6867 40.2631C94.7086 40.4971 94.8091 40.7167 94.9718 40.8862C95.1345 41.0557 95.3498 41.1652 95.5827 41.1967C95.7266 41.2061 95.871 41.2061 96.015 41.1967H98.6779C98.6823 41.2697 98.6823 41.343 98.6779 41.416C98.6779 42.5313 98.6779 43.6403 98.6779 44.7556C98.6779 44.7995 98.6779 44.8496 98.6779 44.8934C98.5714 44.9937 98.4461 44.9561 98.327 44.9561H94.6867C93.8125 44.9334 92.9716 44.6159 92.3006 44.0552C91.6295 43.4944 91.1676 42.7234 90.9899 41.8671C90.9734 41.7846 90.9525 41.703 90.9273 41.6228C90.7957 41.6228 90.7456 41.7481 90.6767 41.8233C89.5258 43.0444 88.0347 43.8917 86.3967 44.2556C84.7586 44.6194 83.049 44.4829 81.4894 43.8638C79.9298 43.2447 78.5921 42.1715 77.6496 40.7832C76.707 39.3949 76.2031 37.7556 76.2031 36.0777C76.2031 34.3997 76.707 32.7604 77.6496 31.3721C78.5921 29.9838 79.9298 28.9106 81.4894 28.2915C83.049 27.6724 84.7586 27.5359 86.3967 27.8997C88.0347 28.2636 89.5258 29.1109 90.6767 30.332L90.8709 30.5263L90.9398 30.4949L90.9273 30.5325ZM84.5739 31.4912C83.6638 31.4937 82.7749 31.7662 82.0197 32.2741C81.2645 32.7821 80.677 33.5027 80.3316 34.3447C79.9862 35.1868 79.8984 36.1123 80.0793 37.0043C80.2602 37.8963 80.7017 38.7145 81.3478 39.3554C81.994 39.9963 82.8159 40.4311 83.7093 40.6047C84.6027 40.7783 85.5275 40.6829 86.3667 40.3306C87.2059 39.9783 87.9217 39.385 88.4234 38.6257C88.9252 37.8664 89.1904 36.9752 89.1854 36.0651C89.1838 35.4618 89.0631 34.8646 88.8303 34.308C88.5975 33.7514 88.2572 33.2461 87.8288 32.8212C87.4004 32.3963 86.8924 32.0601 86.3339 31.8319C85.7753 31.6037 85.1772 31.4879 84.5739 31.4912Z" fill="white"/>
<path fill-rule="evenodd" clip-rule="evenodd" d="M13.4776 32.6566C13.9554 32.6248 14.4352 32.6522 14.9062 32.7381C16.4631 32.9675 17.9336 33.598 19.1731 34.5676C19.7872 35.046 20.3387 35.5996 20.8147 36.2155C20.8627 36.2747 20.8985 36.3429 20.9201 36.416C20.9416 36.4891 20.9484 36.5658 20.94 36.6416C20.8384 38.4425 20.2159 40.1752 19.1481 41.629C18.0803 43.0828 16.6131 44.1952 14.925 44.8308C14.6474 44.9399 14.3523 44.9972 14.0541 45H2.83226C2.69321 45.0221 2.55152 45.0221 2.41246 45C2.34981 44.693 2.31848 41.5225 2.3686 39.8997C2.37364 39.8132 2.38622 39.7272 2.4062 39.6428H2.84479C6.18648 39.6428 9.52817 39.6428 12.8699 39.6428C13.3013 39.658 13.7232 39.5129 14.0541 39.2356C14.565 38.8453 14.9691 38.3322 15.2287 37.7439C15.4883 37.1557 15.595 36.5114 15.539 35.8709C15.5091 35.3007 15.3496 34.7448 15.0728 34.2454C14.796 33.746 14.409 33.3162 13.9413 32.9887C13.8097 32.8884 13.6656 32.8133 13.4651 32.6817" fill="white"/>
<path fill-rule="evenodd" clip-rule="evenodd" d="M8.84849 26.4097C6.15016 26.2578 3.55846 25.3045 1.40488 23.6716C1.37025 23.3698 1.37025 23.065 1.40488 22.7631C1.59647 21.0066 2.34807 19.3583 3.5486 18.0619C4.74914 16.7654 6.33491 15.8896 8.07155 15.5639C8.53429 15.4758 9.00403 15.4296 9.47506 15.426H18.3535H18.6292C18.6934 15.5448 18.7134 15.6824 18.6856 15.8145C18.6856 17.2117 18.6856 18.609 18.6856 20.0062C18.6856 20.2005 18.6856 20.3884 18.6856 20.5827C18.6856 20.6391 18.6856 20.6954 18.6856 20.7769H18.2846H9.70062C9.29281 20.7729 8.88824 20.8496 8.51015 21.0025C7.99625 21.2217 7.55811 21.5872 7.25017 22.0533C6.94222 22.5195 6.77805 23.0659 6.77805 23.6246C6.77805 24.1834 6.94222 24.7298 7.25017 25.196C7.55811 25.6621 7.99625 26.0276 8.51015 26.2468L8.83596 26.3847" fill="white"/>
<path fill-rule="evenodd" clip-rule="evenodd" d="M1.39844 24.0225L1.68039 24.2042C3.14994 25.2607 4.81251 26.0185 6.57388 26.4348C7.28993 26.619 8.02236 26.7323 8.76059 26.7732C9.24305 26.7732 9.71924 26.8233 10.1954 26.8233C11.3295 26.8233 12.4636 26.8233 13.604 26.8233C14.2731 26.8187 14.9347 26.9643 15.54 27.2494C16.8819 27.8643 18.0577 28.7906 18.9698 29.9511C19.8819 31.1117 20.504 32.4731 20.7844 33.9223C20.8893 34.4741 20.948 35.0337 20.9598 35.5952C20.9696 35.691 20.9696 35.7876 20.9598 35.8834C20.8533 35.7644 20.7844 35.6892 20.7217 35.6077C19.8466 34.5257 18.7371 33.6566 17.4769 33.0661C16.2167 32.4756 14.8388 32.1792 13.4473 32.1992C12.1942 32.1992 10.8909 32.1992 9.61272 32.1992C8.4617 32.2048 7.32359 31.9567 6.27939 31.4724C5.07703 30.9413 4.02106 30.1271 3.20166 29.0993C2.38226 28.0715 1.82377 26.8606 1.57388 25.5702C1.46075 25.0582 1.41234 24.534 1.42977 24.01" fill="#FDB913"/>
<path fill-rule="evenodd" clip-rule="evenodd" d="M93.7456 18.1391L92.6491 20.8772C92.5875 20.8702 92.5267 20.8577 92.4674 20.8396C91.4791 20.4738 90.4323 20.2912 89.3785 20.3008H79.7669H79.3409C79.2931 20.1728 79.2781 20.035 79.297 19.8998V14.2983C79.297 14.2105 79.297 14.1166 79.297 14.0038C79.5491 13.979 79.8031 13.979 80.0552 14.0038H81.5276C81.7718 13.9914 82.0165 13.9914 82.2607 14.0038C82.2607 14.1291 82.2607 14.2356 82.2607 14.3358C82.2607 15.1942 82.2607 16.0589 82.2607 16.9173V17.2682C82.3722 17.3195 82.4964 17.337 82.6178 17.3183H85.7506C87.0414 17.3183 88.3321 17.3183 89.6228 17.3183C90.9072 17.3264 92.18 17.5618 93.3822 18.0138L93.683 18.1454" fill="#FDB913"/>
<path fill-rule="evenodd" clip-rule="evenodd" d="M79.0667 10.8584C79.0642 10.6029 79.1127 10.3495 79.2095 10.113C79.3063 9.87658 79.4494 9.66186 79.6303 9.48149C79.8113 9.30112 80.0265 9.15874 80.2632 9.06271C80.5 8.96667 80.7536 8.91893 81.009 8.92228C81.5258 8.92228 82.0215 9.12758 82.3869 9.49302C82.7523 9.85846 82.9576 10.3541 82.9576 10.8709C82.9576 11.3877 82.7523 11.8834 82.3869 12.2488C82.0215 12.6142 81.5258 12.8195 81.009 12.8195C80.7494 12.8293 80.4906 12.7852 80.249 12.6899C80.0073 12.5946 79.788 12.4503 79.6049 12.266C79.4218 12.0818 79.2789 11.8615 79.1852 11.6193C79.0915 11.377 79.049 11.1179 79.0604 10.8584" fill="#FDB913"/>
<path d="M1.83984 11.9999V6.18176H3.63246C4.00178 6.18176 4.31806 6.25752 4.58132 6.40904C4.84647 6.56055 5.05007 6.76794 5.19212 7.03119C5.33416 7.29445 5.40518 7.59464 5.40518 7.93176C5.40518 8.2651 5.33416 8.56339 5.19212 8.82665C5.05007 9.08991 4.84647 9.29824 4.58132 9.45165C4.31806 9.60316 4.00272 9.67892 3.6353 9.67892H2.08984V9.34938H3.62678C3.92602 9.34938 4.1817 9.28877 4.39382 9.16756C4.60594 9.04445 4.76882 8.87684 4.88246 8.66472C4.99609 8.4507 5.05291 8.20638 5.05291 7.93176C5.05291 7.65525 4.99609 7.40998 4.88246 7.19597C4.76882 6.98195 4.605 6.81434 4.39098 6.69313C4.17886 6.57191 3.92318 6.51131 3.62393 6.51131H2.19496V11.9999H1.83984Z" fill="white"/>
<path d="M8.22266 12.0909C7.86281 12.0909 7.54273 11.9943 7.26243 11.8011C6.98213 11.606 6.76148 11.338 6.6005 10.9971C6.43951 10.6562 6.35902 10.2679 6.35902 9.83233C6.35902 9.39483 6.43951 9.00657 6.6005 8.66756C6.76148 8.32665 6.98213 8.05866 7.26243 7.86358C7.54273 7.66851 7.86281 7.57097 8.22266 7.57097C8.5825 7.57097 8.90258 7.66851 9.18288 7.86358C9.46319 8.05866 9.68383 8.32665 9.84482 8.66756C10.0058 9.00847 10.0863 9.39672 10.0863 9.83233C10.0863 10.2679 10.0058 10.6562 9.84482 10.9971C9.68383 11.338 9.46319 11.606 9.18288 11.8011C8.90258 11.9943 8.5825 12.0909 8.22266 12.0909ZM8.22266 11.7698C8.52758 11.7698 8.79368 11.6837 9.02095 11.5113C9.25012 11.339 9.4272 11.106 9.5522 10.8124C9.6791 10.5189 9.74254 10.1922 9.74254 9.83233C9.74254 9.47248 9.6791 9.14672 9.5522 8.85506C9.42531 8.5615 9.24822 8.32854 9.02095 8.15619C8.79368 7.98195 8.52758 7.89483 8.22266 7.89483C7.91773 7.89483 7.65163 7.98195 7.42436 8.15619C7.19709 8.32854 7.02 8.5615 6.89311 8.85506C6.76622 9.14672 6.70277 9.47248 6.70277 9.83233C6.70277 10.1922 6.76527 10.5189 6.89027 10.8124C7.01716 11.106 7.19425 11.339 7.42152 11.5113C7.65069 11.6837 7.91773 11.7698 8.22266 11.7698Z" fill="white"/>
<path d="M12.0835 11.9999L10.7766 7.63631H11.1403L12.2653 11.4914H12.2965L13.4244 7.63631H13.7852L14.9102 11.4886H14.9386L16.0636 7.63631H16.4272L15.1204 11.9999H14.734L13.6204 8.20165H13.5835L12.4698 11.9999H12.0835Z" fill="white"/>
<path d="M19.06 12.0909C18.6661 12.0909 18.3233 11.9933 18.0316 11.7982C17.7399 11.6032 17.5146 11.3361 17.3555 10.9971C17.1964 10.6581 17.1168 10.2717 17.1168 9.83801C17.1168 9.40241 17.1964 9.01415 17.3555 8.67324C17.5165 8.33233 17.7371 8.06339 18.0174 7.86642C18.2977 7.66945 18.6178 7.57097 18.9776 7.57097C19.2219 7.57097 19.453 7.62021 19.6708 7.71869C19.8905 7.81529 20.0837 7.95544 20.2504 8.13915C20.4189 8.32286 20.5505 8.54445 20.6452 8.80392C20.7418 9.06339 20.7901 9.35506 20.7901 9.67892V9.89483H17.3356V9.57949H20.4435C20.4435 9.2632 20.3791 8.97816 20.2504 8.72438C20.1216 8.47059 19.9464 8.26888 19.7248 8.11926C19.5032 7.96964 19.2541 7.89483 18.9776 7.89483C18.6879 7.89483 18.4293 7.97627 18.2021 8.13915C17.9767 8.30013 17.7977 8.51794 17.6651 8.79256C17.5344 9.06718 17.4663 9.374 17.4606 9.71301V9.85506C17.4606 10.2187 17.524 10.5454 17.6509 10.8352C17.7797 11.1231 17.9634 11.3513 18.2021 11.5198C18.4407 11.6865 18.7267 11.7698 19.06 11.7698C19.2987 11.7698 19.5022 11.7301 19.6708 11.6505C19.8413 11.5691 19.9805 11.4706 20.0884 11.3551C20.1964 11.2395 20.2778 11.1278 20.3327 11.0198L20.6481 11.1477C20.5818 11.2935 20.4786 11.4393 20.3384 11.5852C20.2002 11.7291 20.024 11.8494 19.81 11.946C19.5979 12.0426 19.3479 12.0909 19.06 12.0909Z" fill="white"/>
<path d="M21.9833 11.9999V7.63631H22.3214V8.31813H22.3526C22.4473 8.09464 22.6074 7.91566 22.8327 7.78119C23.0581 7.64483 23.3147 7.57665 23.6026 7.57665C23.6329 7.57665 23.6632 7.57665 23.6935 7.57665C23.7238 7.57665 23.7522 7.5776 23.7788 7.57949V7.92892C23.756 7.92703 23.7286 7.92419 23.6964 7.9204C23.6661 7.91472 23.6282 7.91188 23.5827 7.91188C23.3403 7.91188 23.1244 7.96396 22.935 8.06813C22.7475 8.17229 22.5998 8.31623 22.4918 8.49994C22.3839 8.68176 22.3299 8.8901 22.3299 9.12494V11.9999H21.9833Z" fill="white"/>
<path d="M26.2788 12.0909C25.8848 12.0909 25.542 11.9933 25.2504 11.7982C24.9587 11.6032 24.7333 11.3361 24.5742 10.9971C24.4151 10.6581 24.3356 10.2717 24.3356 9.83801C24.3356 9.40241 24.4151 9.01415 24.5742 8.67324C24.7352 8.33233 24.9558 8.06339 25.2362 7.86642C25.5165 7.66945 25.8365 7.57097 26.1964 7.57097C26.4407 7.57097 26.6718 7.62021 26.8896 7.71869C27.1093 7.81529 27.3024 7.95544 27.4691 8.13915C27.6377 8.32286 27.7693 8.54445 27.864 8.80392C27.9606 9.06339 28.0089 9.35506 28.0089 9.67892V9.89483H24.5543V9.57949H27.6623C27.6623 9.2632 27.5979 8.97816 27.4691 8.72438C27.3403 8.47059 27.1651 8.26888 26.9435 8.11926C26.7219 7.96964 26.4729 7.89483 26.1964 7.89483C25.9066 7.89483 25.6481 7.97627 25.4208 8.13915C25.1954 8.30013 25.0165 8.51794 24.8839 8.79256C24.7532 9.06718 24.685 9.374 24.6793 9.71301V9.85506C24.6793 10.2187 24.7428 10.5454 24.8697 10.8352C24.9985 11.1231 25.1822 11.3513 25.4208 11.5198C25.6594 11.6865 25.9454 11.7698 26.2788 11.7698C26.5174 11.7698 26.721 11.7301 26.8896 11.6505C27.06 11.5691 27.1992 11.4706 27.3072 11.3551C27.4151 11.2395 27.4966 11.1278 27.5515 11.0198L27.8668 11.1477C27.8005 11.2935 27.6973 11.4393 27.5572 11.5852C27.4189 11.7291 27.2428 11.8494 27.0288 11.946C26.8166 12.0426 26.5666 12.0909 26.2788 12.0909Z" fill="white"/>
<path d="M30.6992 12.0909C30.3488 12.0909 30.043 11.9943 29.7816 11.8011C29.5202 11.6079 29.3176 11.3418 29.1737 11.0028C29.0316 10.6619 28.9606 10.2708 28.9606 9.82949C28.9606 9.39199 29.0326 9.00373 29.1765 8.66472C29.3223 8.32381 29.5259 8.05676 29.7873 7.86358C30.0487 7.66851 30.3536 7.57097 30.7021 7.57097C30.9521 7.57097 31.1689 7.61926 31.3526 7.71585C31.5382 7.81055 31.6935 7.9365 31.8185 8.09369C31.9454 8.25089 32.042 8.42324 32.1083 8.61074H32.1424V6.18176H32.4862V11.9999H32.1509V11.0482H32.1083C32.0382 11.2357 31.9407 11.409 31.8157 11.5681C31.6907 11.7253 31.5354 11.8522 31.3498 11.9488C31.1642 12.0435 30.9473 12.0909 30.6992 12.0909ZM30.7305 11.7698C31.0259 11.7698 31.2788 11.6856 31.489 11.517C31.7011 11.3465 31.863 11.1155 31.9748 10.8238C32.0884 10.5302 32.1452 10.1979 32.1452 9.82665C32.1452 9.45544 32.0884 9.12494 31.9748 8.83517C31.863 8.54351 31.7011 8.31434 31.489 8.14767C31.2788 7.97911 31.0259 7.89483 30.7305 7.89483C30.4312 7.89483 30.1746 7.98006 29.9606 8.15051C29.7485 8.31907 29.5856 8.54919 29.4719 8.84085C29.3602 9.13252 29.3043 9.46112 29.3043 9.82665C29.3043 10.1922 29.3602 10.5217 29.4719 10.8153C29.5856 11.1088 29.7485 11.3418 29.9606 11.5141C30.1746 11.6846 30.4312 11.7698 30.7305 11.7698Z" fill="white"/>
<path d="M36.418 11.9999V6.18176H36.7617V8.61074H36.7958C36.864 8.42324 36.9606 8.25089 37.0856 8.09369C37.2106 7.9365 37.3659 7.81055 37.5515 7.71585C37.7371 7.61926 37.954 7.57097 38.2021 7.57097C38.5524 7.57097 38.8583 7.66851 39.1197 7.86358C39.381 8.05676 39.5837 8.32381 39.7276 8.66472C39.8716 9.00373 39.9435 9.39199 39.9435 9.82949C39.9435 10.2708 39.8716 10.6619 39.7276 11.0028C39.5837 11.3418 39.382 11.6079 39.1225 11.8011C38.863 11.9943 38.5572 12.0909 38.2049 12.0909C37.9568 12.0909 37.7399 12.0435 37.5543 11.9488C37.3687 11.8522 37.2134 11.7253 37.0884 11.5681C36.9634 11.409 36.8659 11.2357 36.7958 11.0482H36.756V11.9999H36.418ZM36.7589 9.82665C36.7589 10.1979 36.8147 10.5302 36.9265 10.8238C37.0401 11.1155 37.203 11.3465 37.4151 11.517C37.6272 11.6856 37.881 11.7698 38.1765 11.7698C38.4757 11.7698 38.7314 11.6846 38.9435 11.5141C39.1557 11.3418 39.3176 11.1088 39.4293 10.8153C39.543 10.5217 39.5998 10.1922 39.5998 9.82665C39.5998 9.46112 39.543 9.13252 39.4293 8.84085C39.3176 8.54919 39.1557 8.31907 38.9435 8.15051C38.7314 7.98006 38.4757 7.89483 38.1765 7.89483C37.881 7.89483 37.6272 7.97911 37.4151 8.14767C37.203 8.31434 37.0401 8.54351 36.9265 8.83517C36.8147 9.12494 36.7589 9.45544 36.7589 9.82665Z" fill="white"/>
<path d="M41.2617 13.6363C41.1746 13.6363 41.0884 13.6268 41.0032 13.6079C40.918 13.589 40.8413 13.5643 40.7731 13.534L40.8754 13.2301C41.0534 13.2982 41.2144 13.3229 41.3583 13.3039C41.5041 13.285 41.6329 13.2187 41.7447 13.1051C41.8564 12.9914 41.9511 12.8248 42.0288 12.6051L42.2276 12.0596L40.6282 7.63631H41.0004L42.3867 11.5539H42.4151L43.8015 7.63631H44.1736L42.3327 12.7414C42.2627 12.9384 42.1746 13.1032 42.0685 13.2357C41.9625 13.3683 41.8413 13.4677 41.7049 13.534C41.5704 13.6022 41.4227 13.6363 41.2617 13.6363Z" fill="white"/>
<path d="M1.83984 11.9999V6.18176H3.63246C4.00178 6.18176 4.31806 6.25752 4.58132 6.40904C4.84647 6.56055 5.05007 6.76794 5.19212 7.03119C5.33416 7.29445 5.40518 7.59464 5.40518 7.93176C5.40518 8.2651 5.33416 8.56339 5.19212 8.82665C5.05007 9.08991 4.84647 9.29824 4.58132 9.45165C4.31806 9.60316 4.00272 9.67892 3.6353 9.67892H2.08984V9.34938H3.62678C3.92602 9.34938 4.1817 9.28877 4.39382 9.16756C4.60594 9.04445 4.76882 8.87684 4.88246 8.66472C4.99609 8.4507 5.05291 8.20638 5.05291 7.93176C5.05291 7.65525 4.99609 7.40998 4.88246 7.19597C4.76882 6.98195 4.605 6.81434 4.39098 6.69313C4.17886 6.57191 3.92318 6.51131 3.62393 6.51131H2.19496V11.9999H1.83984Z" stroke="white" stroke-width="0.2"/>
<path d="M8.22266 12.0909C7.86281 12.0909 7.54273 11.9943 7.26243 11.8011C6.98213 11.606 6.76148 11.338 6.6005 10.9971C6.43951 10.6562 6.35902 10.2679 6.35902 9.83233C6.35902 9.39483 6.43951 9.00657 6.6005 8.66756C6.76148 8.32665 6.98213 8.05866 7.26243 7.86358C7.54273 7.66851 7.86281 7.57097 8.22266 7.57097C8.5825 7.57097 8.90258 7.66851 9.18288 7.86358C9.46319 8.05866 9.68383 8.32665 9.84482 8.66756C10.0058 9.00847 10.0863 9.39672 10.0863 9.83233C10.0863 10.2679 10.0058 10.6562 9.84482 10.9971C9.68383 11.338 9.46319 11.606 9.18288 11.8011C8.90258 11.9943 8.5825 12.0909 8.22266 12.0909ZM8.22266 11.7698C8.52758 11.7698 8.79368 11.6837 9.02095 11.5113C9.25012 11.339 9.4272 11.106 9.5522 10.8124C9.6791 10.5189 9.74254 10.1922 9.74254 9.83233C9.74254 9.47248 9.6791 9.14672 9.5522 8.85506C9.42531 8.5615 9.24822 8.32854 9.02095 8.15619C8.79368 7.98195 8.52758 7.89483 8.22266 7.89483C7.91773 7.89483 7.65163 7.98195 7.42436 8.15619C7.19709 8.32854 7.02 8.5615 6.89311 8.85506C6.76622 9.14672 6.70277 9.47248 6.70277 9.83233C6.70277 10.1922 6.76527 10.5189 6.89027 10.8124C7.01716 11.106 7.19425 11.339 7.42152 11.5113C7.65069 11.6837 7.91773 11.7698 8.22266 11.7698Z" stroke="white" stroke-width="0.2"/>
<path d="M12.0835 11.9999L10.7766 7.63631H11.1403L12.2653 11.4914H12.2965L13.4244 7.63631H13.7852L14.9102 11.4886H14.9386L16.0636 7.63631H16.4272L15.1204 11.9999H14.734L13.6204 8.20165H13.5835L12.4698 11.9999H12.0835Z" stroke="white" stroke-width="0.2"/>
<path d="M19.06 12.0909C18.6661 12.0909 18.3233 11.9933 18.0316 11.7982C17.7399 11.6032 17.5146 11.3361 17.3555 10.9971C17.1964 10.6581 17.1168 10.2717 17.1168 9.83801C17.1168 9.40241 17.1964 9.01415 17.3555 8.67324C17.5165 8.33233 17.7371 8.06339 18.0174 7.86642C18.2977 7.66945 18.6178 7.57097 18.9776 7.57097C19.2219 7.57097 19.453 7.62021 19.6708 7.71869C19.8905 7.81529 20.0837 7.95544 20.2504 8.13915C20.4189 8.32286 20.5505 8.54445 20.6452 8.80392C20.7418 9.06339 20.7901 9.35506 20.7901 9.67892V9.89483H17.3356V9.57949H20.4435C20.4435 9.2632 20.3791 8.97816 20.2504 8.72438C20.1216 8.47059 19.9464 8.26888 19.7248 8.11926C19.5032 7.96964 19.2541 7.89483 18.9776 7.89483C18.6879 7.89483 18.4293 7.97627 18.2021 8.13915C17.9767 8.30013 17.7977 8.51794 17.6651 8.79256C17.5344 9.06718 17.4663 9.374 17.4606 9.71301V9.85506C17.4606 10.2187 17.524 10.5454 17.6509 10.8352C17.7797 11.1231 17.9634 11.3513 18.2021 11.5198C18.4407 11.6865 18.7267 11.7698 19.06 11.7698C19.2987 11.7698 19.5022 11.7301 19.6708 11.6505C19.8413 11.5691 19.9805 11.4706 20.0884 11.3551C20.1964 11.2395 20.2778 11.1278 20.3327 11.0198L20.6481 11.1477C20.5818 11.2935 20.4786 11.4393 20.3384 11.5852C20.2002 11.7291 20.024 11.8494 19.81 11.946C19.5979 12.0426 19.3479 12.0909 19.06 12.0909Z" stroke="white" stroke-width="0.2"/>
<path d="M21.9833 11.9999V7.63631H22.3214V8.31813H22.3526C22.4473 8.09464 22.6074 7.91566 22.8327 7.78119C23.0581 7.64483 23.3147 7.57665 23.6026 7.57665C23.6329 7.57665 23.6632 7.57665 23.6935 7.57665C23.7238 7.57665 23.7522 7.5776 23.7788 7.57949V7.92892C23.756 7.92703 23.7286 7.92419 23.6964 7.9204C23.6661 7.91472 23.6282 7.91188 23.5827 7.91188C23.3403 7.91188 23.1244 7.96396 22.935 8.06813C22.7475 8.17229 22.5998 8.31623 22.4918 8.49994C22.3839 8.68176 22.3299 8.8901 22.3299 9.12494V11.9999H21.9833Z" stroke="white" stroke-width="0.2"/>
<path d="M26.2788 12.0909C25.8848 12.0909 25.542 11.9933 25.2504 11.7982C24.9587 11.6032 24.7333 11.3361 24.5742 10.9971C24.4151 10.6581 24.3356 10.2717 24.3356 9.83801C24.3356 9.40241 24.4151 9.01415 24.5742 8.67324C24.7352 8.33233 24.9558 8.06339 25.2362 7.86642C25.5165 7.66945 25.8365 7.57097 26.1964 7.57097C26.4407 7.57097 26.6718 7.62021 26.8896 7.71869C27.1093 7.81529 27.3024 7.95544 27.4691 8.13915C27.6377 8.32286 27.7693 8.54445 27.864 8.80392C27.9606 9.06339 28.0089 9.35506 28.0089 9.67892V9.89483H24.5543V9.57949H27.6623C27.6623 9.2632 27.5979 8.97816 27.4691 8.72438C27.3403 8.47059 27.1651 8.26888 26.9435 8.11926C26.7219 7.96964 26.4729 7.89483 26.1964 7.89483C25.9066 7.89483 25.6481 7.97627 25.4208 8.13915C25.1954 8.30013 25.0165 8.51794 24.8839 8.79256C24.7532 9.06718 24.685 9.374 24.6793 9.71301V9.85506C24.6793 10.2187 24.7428 10.5454 24.8697 10.8352C24.9985 11.1231 25.1822 11.3513 25.4208 11.5198C25.6594 11.6865 25.9454 11.7698 26.2788 11.7698C26.5174 11.7698 26.721 11.7301 26.8896 11.6505C27.06 11.5691 27.1992 11.4706 27.3072 11.3551C27.4151 11.2395 27.4966 11.1278 27.5515 11.0198L27.8668 11.1477C27.8005 11.2935 27.6973 11.4393 27.5572 11.5852C27.4189 11.7291 27.2428 11.8494 27.0288 11.946C26.8166 12.0426 26.5666 12.0909 26.2788 12.0909Z" stroke="white" stroke-width="0.2"/>
<path d="M30.6992 12.0909C30.3488 12.0909 30.043 11.9943 29.7816 11.8011C29.5202 11.6079 29.3176 11.3418 29.1737 11.0028C29.0316 10.6619 28.9606 10.2708 28.9606 9.82949C28.9606 9.39199 29.0326 9.00373 29.1765 8.66472C29.3223 8.32381 29.5259 8.05676 29.7873 7.86358C30.0487 7.66851 30.3536 7.57097 30.7021 7.57097C30.9521 7.57097 31.1689 7.61926 31.3526 7.71585C31.5382 7.81055 31.6935 7.9365 31.8185 8.09369C31.9454 8.25089 32.042 8.42324 32.1083 8.61074H32.1424V6.18176H32.4862V11.9999H32.1509V11.0482H32.1083C32.0382 11.2357 31.9407 11.409 31.8157 11.5681C31.6907 11.7253 31.5354 11.8522 31.3498 11.9488C31.1642 12.0435 30.9473 12.0909 30.6992 12.0909ZM30.7305 11.7698C31.0259 11.7698 31.2788 11.6856 31.489 11.517C31.7011 11.3465 31.863 11.1155 31.9748 10.8238C32.0884 10.5302 32.1452 10.1979 32.1452 9.82665C32.1452 9.45544 32.0884 9.12494 31.9748 8.83517C31.863 8.54351 31.7011 8.31434 31.489 8.14767C31.2788 7.97911 31.0259 7.89483 30.7305 7.89483C30.4312 7.89483 30.1746 7.98006 29.9606 8.15051C29.7485 8.31907 29.5856 8.54919 29.4719 8.84085C29.3602 9.13252 29.3043 9.46112 29.3043 9.82665C29.3043 10.1922 29.3602 10.5217 29.4719 10.8153C29.5856 11.1088 29.7485 11.3418 29.9606 11.5141C30.1746 11.6846 30.4312 11.7698 30.7305 11.7698Z" stroke="white" stroke-width="0.2"/>
<path d="M36.418 11.9999V6.18176H36.7617V8.61074H36.7958C36.864 8.42324 36.9606 8.25089 37.0856 8.09369C37.2106 7.9365 37.3659 7.81055 37.5515 7.71585C37.7371 7.61926 37.954 7.57097 38.2021 7.57097C38.5524 7.57097 38.8583 7.66851 39.1197 7.86358C39.381 8.05676 39.5837 8.32381 39.7276 8.66472C39.8716 9.00373 39.9435 9.39199 39.9435 9.82949C39.9435 10.2708 39.8716 10.6619 39.7276 11.0028C39.5837 11.3418 39.382 11.6079 39.1225 11.8011C38.863 11.9943 38.5572 12.0909 38.2049 12.0909C37.9568 12.0909 37.7399 12.0435 37.5543 11.9488C37.3687 11.8522 37.2134 11.7253 37.0884 11.5681C36.9634 11.409 36.8659 11.2357 36.7958 11.0482H36.756V11.9999H36.418ZM36.7589 9.82665C36.7589 10.1979 36.8147 10.5302 36.9265 10.8238C37.0401 11.1155 37.203 11.3465 37.4151 11.517C37.6272 11.6856 37.881 11.7698 38.1765 11.7698C38.4757 11.7698 38.7314 11.6846 38.9435 11.5141C39.1557 11.3418 39.3176 11.1088 39.4293 10.8153C39.543 10.5217 39.5998 10.1922 39.5998 9.82665C39.5998 9.46112 39.543 9.13252 39.4293 8.84085C39.3176 8.54919 39.1557 8.31907 38.9435 8.15051C38.7314 7.98006 38.4757 7.89483 38.1765 7.89483C37.881 7.89483 37.6272 7.97911 37.4151 8.14767C37.203 8.31434 37.0401 8.54351 36.9265 8.83517C36.8147 9.12494 36.7589 9.45544 36.7589 9.82665Z" stroke="white" stroke-width="0.2"/>
<path d="M41.2617 13.6363C41.1746 13.6363 41.0884 13.6268 41.0032 13.6079C40.918 13.589 40.8413 13.5643 40.7731 13.534L40.8754 13.2301C41.0534 13.2982 41.2144 13.3229 41.3583 13.3039C41.5041 13.285 41.6329 13.2187 41.7447 13.1051C41.8564 12.9914 41.9511 12.8248 42.0288 12.6051L42.2276 12.0596L40.6282 7.63631H41.0004L42.3867 11.5539H42.4151L43.8015 7.63631H44.1736L42.3327 12.7414C42.2627 12.9384 42.1746 13.1032 42.0685 13.2357C41.9625 13.3683 41.8413 13.4677 41.7049 13.534C41.5704 13.6022 41.4227 13.6363 41.2617 13.6363Z" stroke="white" stroke-width="0.2"/>
</g>
<defs>
<clipPath id="clip0_1383_103">
<rect width="119.236" height="45" fill="white"/>
</clipPath>
</defs>
</svg>
